<?xml version="1.0" standalone="no"?>
<!DOCTYPE svg PUBLIC "-//W3C//DTD SVG 20010904//EN"
 "http://www.w3.org/TR/2001/REC-SVG-20010904/DTD/svg10.dtd">
<svg version="1.0" xmlns="http://www.w3.org/2000/svg"
 width="512.000000pt" height="512.000000pt" viewBox="0 0 512.000000 512.000000"
 preserveAspectRatio="xMidYMid meet">
<metadata>
Created by potrace 1.11, written by Peter Selinger 2001-2013
</metadata>
<g transform="translate(0.000000,512.000000) scale(0.100000,-0.100000)"
fill="#000000" stroke="none">
<path d="M2503 5088 c-222 -186 -388 -466 -448 -755 -9 -43 -17 -79 -19 -80
-2 -2 -15 1 -29 6 -99 38 -390 63 -444 38 -30 -13 -37 -42 -37 -152 0 -113 16
-237 39 -297 4 -11 -7 -23 -39 -42 -139 -81 -270 -259 -315 -427 l-13 -46 -74
-11 c-284 -44 -535 -294 -581 -579 -9 -53 -9 -188 0 -243 37 -237 212 -455
438 -544 72 -29 170 -52 212 -51 20 1 26 -3 22 -15 -16 -50 -26 -136 -24 -213
4 -207 98 -403 259 -536 104 -87 272 -155 398 -162 33 -2 41 -6 37 -18 -49
-161 -52 -308 -10 -451 53 -176 195 -347 356 -427 120 -61 209 -81 344 -77 61
1 117 4 125 7 8 2 29 7 45 12 239 63 438 263 506 510 20 75 29 243 16 300 -12
46 -26 101 -32 120 -5 18 -1 21 32 23 194 11 393 120 518 282 131 170 179 423
119 622 -4 13 4 18 43 23 222 31 412 149 527 330 34 53 80 159 91 210 4 17 9
39 12 50 2 11 6 58 7 105 11 349 -247 664 -591 721 l-71 12 -26 81 c-57 172
-144 282 -323 406 -21 15 -22 17 -7 70 20 75 28 149 28 255 0 117 -7 141 -42
153 -66 23 -341 -2 -439 -39 -30 -11 -36 -7 -40 29 -14 110 -77 295 -143 417
-94 172 -310 415 -371 415 -10 0 -35 -14 -56 -32z"/>
</g>
</svg>
